<svg width="500" height="500" viewBox="0 0 500 500" fill="none" xmlns="http://www.w3.org/2000/svg">
<circle cx="250" cy="250" r="250" fill="#2B3C75" fill-opacity="0.5"/>
<ellipse cx="247" cy="293.5" rx="189" ry="206.5" fill="#FE5022" fill-opacity="0.3"/>
<g clip-path="url(#clip0_2_52)">
<path d="M221.504 414.157C214.418 414.157 208.654 408.392 208.654 401.306V327.652H234.354V401.306C234.354 408.392 228.59 414.157 221.504 414.157Z" fill="#EFCA83"/>
<path d="M282.86 247.166L263.955 223.613C259.785 218.418 253.905 214.833 247.398 213.517L242.016 212.313L227.963 212.303V239.723L241.389 239.365L257.633 260.212C262.429 266.381 265.069 274.078 265.069 281.887V294.744C265.069 301.829 270.834 307.594 277.92 307.594C285.005 307.594 290.77 301.829 290.77 294.744V269.66C290.77 261.51 287.961 253.522 282.86 247.166Z" fill="#EFCA83"/>
<path d="M163.381 212.312L157.999 213.517C151.491 214.833 145.611 218.418 141.441 223.612L122.537 247.166C117.436 253.522 114.627 261.509 114.627 269.658V294.742C114.627 301.828 120.392 307.593 127.478 307.593C134.563 307.593 140.328 301.828 140.328 294.742V281.886C140.328 274.077 142.967 266.381 147.758 260.22L164.009 239.364L186.186 238.973V212.301L163.381 212.312Z" fill="#EFCA83"/>
<path d="M129.415 294.742V269.658C129.415 261.509 132.224 253.522 137.325 247.166L156.229 223.612C160.399 218.417 166.279 214.832 172.787 213.517L178.169 212.312L186.185 212.309V212.302L163.381 212.312L157.999 213.517C151.491 214.833 145.611 218.418 141.441 223.612L122.537 247.166C117.436 253.522 114.627 261.509 114.627 269.658V294.742C114.627 301.828 120.392 307.593 127.478 307.593C130.231 307.593 132.778 306.714 134.872 305.234C131.577 302.906 129.415 299.075 129.415 294.742Z" fill="#EABB71"/>
<path d="M183.893 414.157C176.807 414.157 171.043 408.392 171.043 401.306V327.652H196.743V401.306C196.744 408.392 190.979 414.157 183.893 414.157Z" fill="#EFCA83"/>
<path d="M223.797 401.306V327.652H208.654V401.306C208.654 408.392 214.419 414.157 221.504 414.157C224.337 414.157 226.949 413.224 229.075 411.666C225.882 409.326 223.797 405.559 223.797 401.306Z" fill="#EABB71"/>
<path d="M186.186 401.306V327.652H171.043V401.306C171.043 408.392 176.808 414.157 183.894 414.157C186.726 414.157 189.338 413.224 191.464 411.666C188.271 409.326 186.186 405.559 186.186 401.306Z" fill="#EABB71"/>
<path d="M148.458 337.668L163.382 294.689V212.312H242.016V294.689L256.939 337.668C258.219 341.355 255.482 345.203 251.579 345.203H153.818C149.916 345.203 147.178 341.355 148.458 337.668Z" fill="#2B3C75"/>
<path d="M162.98 337.668L177.903 294.689V212.312H163.382V294.689L148.458 337.668C147.178 341.355 149.916 345.203 153.818 345.203H168.34C164.438 345.203 161.701 341.355 162.98 337.668Z" fill="#2B3C75"/>
<path d="M202.696 220.438C224.087 220.438 241.427 203.097 241.427 181.707C241.427 160.316 224.087 142.975 202.696 142.975C181.306 142.975 163.965 160.316 163.965 181.707C163.965 203.097 181.306 220.438 202.696 220.438Z" fill="#EFCA83"/>
<path d="M178.953 181.704C178.953 162.878 192.387 147.195 210.19 143.704C207.766 143.229 205.262 142.974 202.698 142.974C181.308 142.974 163.967 160.314 163.967 181.705C163.967 203.096 181.307 220.436 202.698 220.436C205.263 220.436 207.766 220.187 210.19 219.712C192.387 216.22 178.953 200.531 178.953 181.704Z" fill="#EABB71"/>
<path d="M173.311 149.254C172.499 147.33 172.087 145.297 172.087 143.215C172.087 134.653 179.053 127.688 187.615 127.688C194.126 127.688 199.991 131.811 202.211 137.949L208.986 156.973L180.313 167.517L173.311 149.254Z" fill="#77767F"/>
<path d="M241.199 177.506C239.105 158.091 222.669 142.973 202.698 142.973C182.727 142.973 166.291 158.091 164.197 177.506H203.701C203.828 177.506 203.947 177.443 204.019 177.338L208.754 170.417C208.907 170.192 209.239 170.193 209.391 170.419L214.047 177.336C214.119 177.442 214.238 177.506 214.366 177.506H241.199V177.506Z" fill="#898790"/>
<path d="M210.302 143.725C207.843 143.236 205.302 142.973 202.699 142.973C182.728 142.973 166.291 158.091 164.198 177.506H179.406C181.226 160.622 193.895 146.993 210.302 143.725Z" fill="#77767F"/>
<path d="M336.795 415.058C330.171 415.058 324.781 409.668 324.781 403.044V369.438H348.809V403.044C348.809 409.669 343.419 415.058 336.795 415.058Z" fill="#EFCA83"/>
<path d="M360.197 415.058C353.573 415.058 348.183 409.668 348.183 403.044V369.438H372.211V403.044C372.211 409.669 366.822 415.058 360.197 415.058Z" fill="#EFCA83"/>
<path d="M339.754 403.044V369.438H324.781V403.044C324.781 409.668 330.17 415.058 336.795 415.058C339.625 415.058 342.226 414.068 344.282 412.424C341.527 410.22 339.754 406.838 339.754 403.044Z" fill="#EABB71"/>
<path d="M363.156 403.044V369.438H348.182V403.044C348.182 409.668 353.572 415.058 360.197 415.058C363.027 415.058 365.628 414.068 367.684 412.424C364.929 410.22 363.156 406.838 363.156 403.044Z" fill="#EABB71"/>
<path d="M383.907 328.625H371.585H354.381V352.046H371.585V371.842C371.585 378.467 376.974 383.857 383.599 383.857C390.224 383.857 395.613 378.467 395.613 371.842V340.331C395.613 333.877 390.361 328.625 383.907 328.625Z" fill="#EFCA83"/>
<path d="M324.407 328.413L309.778 301.473L309.655 301.311C307.163 298.012 303.202 296.043 299.059 296.043C296.223 296.043 293.515 296.929 291.229 298.604C288.372 300.697 286.5 303.779 285.959 307.284C285.419 310.789 286.273 314.292 288.339 317.111L327.291 373.661C327.452 374.204 327.542 374.51 327.542 374.51H359.829V328.47L324.407 328.413Z" fill="#EFCA83"/>
<path d="M302.32 317.112C300.254 314.292 299.4 310.789 299.94 307.285C300.481 303.78 302.353 300.697 305.209 298.605C305.482 298.405 305.762 298.218 306.046 298.04C303.969 296.757 301.548 296.043 299.059 296.043C296.223 296.043 293.515 296.93 291.229 298.605C288.372 300.697 286.5 303.78 285.959 307.285C285.419 310.789 286.273 314.292 288.339 317.112L327.291 373.661C327.452 374.205 327.542 374.511 327.542 374.511H341.523C341.523 374.511 341.432 374.205 341.271 373.661L302.32 317.112Z" fill="#EABB71"/>
<path d="M323.557 383.157L324.407 328.413L373.465 328.625V383.187C373.465 384.249 372.604 385.11 371.543 385.11H325.481C324.406 385.11 323.541 384.23 323.557 383.157Z" fill="#FE5022"/>
<path d="M337.832 383.157L338.681 328.474L324.407 328.412L323.557 383.156C323.54 384.23 324.406 385.109 325.479 385.109H339.754C338.682 385.11 337.815 384.23 337.832 383.157Z" fill="#FF3501"/>
<path d="M348.496 314.904C334.728 314.904 323.527 303.704 323.527 289.936C323.527 276.168 334.728 264.967 348.496 264.967C362.264 264.967 373.465 276.168 373.465 289.936C373.465 303.704 362.264 314.904 348.496 314.904Z" fill="#EFCA83"/>
<path d="M333.29 299.058C333.29 285.291 344.49 274.089 358.258 274.089C362.421 274.089 366.341 275.113 369.796 276.922C365.403 269.754 357.501 264.967 348.496 264.967C334.728 264.967 323.527 276.168 323.527 289.936C323.527 299.542 328.983 307.893 336.956 312.067C334.632 308.276 333.29 303.821 333.29 299.058Z" fill="#EABB71"/>
<path d="M348.496 318.039C363.992 318.039 376.599 305.432 376.599 289.936C376.599 274.44 363.992 261.833 348.496 261.833C333 261.833 320.393 274.44 320.393 289.936C320.393 305.432 333 318.039 348.496 318.039ZM348.496 271.236C358.807 271.236 367.197 279.625 367.197 289.936C367.197 300.247 358.808 308.637 348.496 308.637C338.185 308.637 329.796 300.248 329.796 289.936C329.796 279.625 338.185 271.236 348.496 271.236Z" fill="black"/>
<path d="M383.907 324.237H327.629L311.555 299.808C311.512 299.743 311.466 299.678 311.42 299.614C307.573 294.363 301.167 292.07 295.159 293.189V269.657C295.159 260.514 292.007 251.55 286.282 244.418L267.377 220.865C261.095 213.038 251.738 208.55 241.702 208.55H235.539C241.456 201.27 245.01 191.999 245.01 181.909C245.01 159.671 227.763 141.399 205.945 139.734C204.252 130.795 196.164 124.088 186.634 124.579C177.455 125.052 169.863 132.329 169.032 141.484C168.656 145.633 169.642 149.666 171.772 153.077C164.717 160.64 160.387 170.776 160.387 181.91C160.387 192 163.942 201.272 169.858 208.551H163.695C153.659 208.551 144.302 213.04 138.02 220.867L119.116 244.42C113.392 251.55 110.24 260.514 110.24 269.659V287.773C103.784 291.891 100 298.99 100 307.28V413.646C100 416.221 101.984 418.466 104.557 418.542C107.219 418.622 109.403 416.487 109.403 413.843V307.28C109.403 304.565 109.992 302.154 111.104 300.125C113.371 307.002 119.852 311.981 127.478 311.981C134.274 311.981 140.164 308.025 142.969 302.296C143.559 303.861 143.877 305.535 143.879 307.254C143.882 309.217 145.032 311.031 146.883 311.683C150.194 312.848 153.282 310.424 153.282 307.278C153.282 300.238 150.165 293.627 144.731 289.141C144.725 289.138 144.721 289.134 144.716 289.131V281.886C144.716 275.047 147.027 268.307 151.222 262.912L158.994 252.939V266.393C158.994 268.989 161.099 271.094 163.696 271.094C166.292 271.094 168.397 268.99 168.397 266.393V217.953H180.567C187.011 221.924 194.591 224.222 202.7 224.222C210.809 224.222 218.389 221.924 224.832 217.953H237.002V294.742C237.002 295.266 237.09 295.788 237.262 296.284L252.506 340.188H152.892L168.136 296.284C168.308 295.788 168.396 295.267 168.396 294.742V289.293C168.396 286.697 166.291 284.592 163.694 284.592C161.098 284.592 158.993 286.696 158.993 289.293V293.948L143.413 338.817C142.334 341.926 143.232 345.472 145.854 347.684C147.371 348.963 149.335 349.59 151.319 349.59H166.655V400.938C166.655 410.318 173.995 418.257 183.37 418.536C193.113 418.825 201.131 410.984 201.131 401.305V349.59H204.265V400.938C204.265 410.318 211.606 418.257 220.981 418.536C230.723 418.825 238.742 410.984 238.742 401.305V349.59H254.08C256.064 349.59 258.026 348.963 259.542 347.685C262.164 345.475 263.061 341.927 261.982 338.817L246.403 293.948V252.94L254.172 262.909C258.369 268.308 260.681 275.048 260.681 281.887V294.395C260.681 302.73 266.475 310.097 274.661 311.669C277.2 312.156 279.653 312.051 281.936 311.504C282.284 314.11 283.263 316.669 284.913 318.942L320.393 370.451V402.701C320.393 411.712 327.515 419.299 336.525 419.445C341.211 419.52 345.46 417.619 348.496 414.524C351.533 417.619 355.782 419.52 360.467 419.445C369.477 419.299 376.599 411.712 376.599 402.701V386.672C378.96 387.791 381.626 388.364 384.437 388.224C393.225 387.782 400.001 380.268 400.001 371.469V340.331C400.001 331.443 392.795 324.237 383.907 324.237ZM158.993 237.641L143.801 257.137C138.327 264.178 135.313 272.967 135.313 281.886V294.742C135.313 299.062 131.798 302.577 127.477 302.577C123.156 302.577 119.641 299.063 119.641 294.742V269.658C119.641 262.645 122.058 255.773 126.447 250.304L145.352 226.751C148.839 222.406 153.656 219.51 158.993 218.43V237.641V237.641ZM187.615 133.957C191.619 133.957 195.026 136.515 196.315 140.08C190.011 141.038 184.16 143.392 179.086 146.816C178.611 145.689 178.356 144.471 178.356 143.215C178.356 138.11 182.509 133.957 187.615 133.957ZM202.699 149.001C216.999 149.001 229.193 158.172 233.721 170.941H218.142L214.91 164.478C213.777 162.212 211.5 160.805 208.968 160.805C208.967 160.805 208.966 160.805 208.966 160.805C206.433 160.805 204.156 162.214 203.024 164.478L199.793 170.94H171.677C176.204 158.172 188.398 149.001 202.699 149.001ZM202.699 214.82C184.553 214.82 169.789 200.057 169.789 181.91C169.789 181.385 169.805 180.863 169.829 180.343H202.699C204.479 180.343 206.108 179.337 206.903 177.744L208.967 173.618L211.031 177.744C211.828 179.337 213.455 180.343 215.235 180.343H235.569C235.593 180.863 235.608 181.385 235.608 181.91C235.608 200.056 220.845 214.82 202.699 214.82ZM191.729 401.306C191.729 405.627 188.214 409.142 183.893 409.142C179.572 409.142 176.057 405.628 176.057 401.306V349.591H191.728V401.306H191.729ZM229.34 401.306C229.34 405.627 225.825 409.142 221.504 409.142C217.182 409.142 213.668 405.628 213.668 401.306V349.591H229.339V401.306H229.34ZM285.755 294.742C285.755 299.063 282.241 302.578 277.92 302.578C273.599 302.578 270.084 299.064 270.084 294.742V281.886C270.084 272.968 267.069 264.179 261.591 257.133L246.403 237.641V218.431C251.74 219.511 256.556 222.407 260.044 226.752L278.948 250.305C283.337 255.774 285.754 262.647 285.754 269.659V294.742H285.755ZM320.393 353.875L292.621 313.556C292.595 313.519 292.568 313.482 292.542 313.445C290.261 310.331 290.937 305.943 294.052 303.663C297.137 301.401 301.475 302.047 303.773 305.09L320.393 330.348V353.875ZM343.794 403.044C343.794 406.903 340.654 410.043 336.795 410.043C332.935 410.043 329.795 406.903 329.795 403.044V388.244H343.794V403.044H343.794ZM367.197 403.044C367.197 406.903 364.057 410.043 360.197 410.043H360.197C356.337 410.043 353.197 406.903 353.197 403.044V388.244H367.196L367.197 403.044ZM367.197 378.841H329.796V333.64H367.197V378.841ZM390.598 371.841C390.598 375.701 387.458 378.841 383.598 378.841C379.739 378.841 376.599 375.701 376.599 371.841V333.64H383.907C387.596 333.64 390.597 336.641 390.597 340.331L390.598 371.841Z" fill="black"/>
</g>
<defs>
<clipPath id="clip0_2_52">
<rect width="300" height="300" fill="white" transform="translate(100 122)"/>
</clipPath>
</defs>
</svg>
