<svg width="35" height="15" viewBox="0 0 35 15" fill="none" xmlns="http://www.w3.org/2000/svg">
<path d="M31.8514 1.79712H29.5165C29.4 0.787142 28.5407 0 27.5 0C26.4593 0 25.6001 0.787111 25.4836 1.79712H23.1486C22.2037 1.79712 21.4351 2.56598 21.4351 3.51086V3.59879C21.4351 4.32085 21.8847 4.93888 22.518 5.1907V13.2863C22.518 14.2312 23.2868 15 24.2316 15H30.7684C31.7133 15 32.482 14.2311 32.482 13.2863V5.19073C33.1153 4.93888 33.5649 4.32085 33.5649 3.59882V3.51089C33.5649 2.56598 32.7962 1.79712 31.8514 1.79712ZM27.5 0.812731C28.0919 0.812731 28.586 1.23699 28.6953 1.79712H26.3049C26.4142 1.23696 26.9083 0.812731 27.5 0.812731ZM31.6692 13.2863C31.6692 13.7831 31.265 14.1873 30.7684 14.1873H24.2316C23.7349 14.1873 23.3307 13.783 23.3307 13.2863V5.31252H31.6692V13.2863ZM32.7522 3.59879C32.7522 4.09559 32.348 4.49982 31.8513 4.49982H23.1486C22.652 4.49982 22.2478 4.09559 22.2478 3.59879V3.51086C22.2478 3.01406 22.652 2.60982 23.1486 2.60982H31.8514C32.348 2.60982 32.7522 3.01406 32.7522 3.51086V3.59879H32.7522Z" fill="#CF1E1E"/>
<path d="M25.3213 13.1479C25.5457 13.1479 25.7276 12.9659 25.7276 12.7416V8.16615C25.7276 7.94178 25.5457 7.75977 25.3213 7.75977C25.0969 7.75977 24.9149 7.94178 24.9149 8.16615V12.7416C24.9149 12.966 25.0968 13.1479 25.3213 13.1479Z" fill="#CF1E1E"/>
<path d="M27.5 13.1479C27.7244 13.1479 27.9063 12.9659 27.9063 12.7416V8.16615C27.9063 7.94178 27.7243 7.75977 27.5 7.75977C27.2756 7.75977 27.0936 7.94178 27.0936 8.16615V12.7416C27.0936 12.966 27.2755 13.1479 27.5 13.1479Z" fill="#CF1E1E"/>
<path d="M29.6786 13.1479C29.903 13.1479 30.0849 12.9659 30.0849 12.7416V8.16615C30.0849 7.94178 29.903 7.75977 29.6786 7.75977C29.4541 7.75977 29.2722 7.94178 29.2722 8.16615V12.7416C29.2722 12.966 29.4542 13.1479 29.6786 13.1479Z" fill="#CF1E1E"/>
<path d="M12.8276 7.90784L10.6557 5.73541H11.9288L11.8923 5.64049C11.1378 3.73084 9.27425 2.37568 7.0927 2.37568C4.24404 2.37568 1.93379 4.6854 1.93379 7.53245C1.93379 10.3833 4.24404 12.693 7.0927 12.693C9.18791 12.693 10.9919 11.5518 11.7985 9.75476L13.8653 9.77567C13.8583 9.79176 12.2393 14.5581 7.05838 14.5581C3.16024 14.5587 0 11.3979 0 7.50081C0 3.60106 3.16024 0.441895 7.05785 0.441895C10.3184 0.441895 13.0614 2.64918 13.8733 5.65175L13.8905 5.73541H15L12.8276 7.90784Z" fill="#1338B9"/>
</svg>
