<svg width="215" height="30" viewBox="0 0 215 30" fill="none" xmlns="http://www.w3.org/2000/svg">
<path d="M51.98 19.52H46.74L45.9 22H42.32L47.4 7.96H51.36L56.44 22H52.82L51.98 19.52ZM51.1 16.88L49.36 11.74L47.64 16.88H51.1ZM63.2461 7.96C64.7261 7.96 66.0194 8.25333 67.1261 8.84C68.2328 9.42667 69.0861 10.2533 69.6861 11.32C70.2994 12.3733 70.6061 13.5933 70.6061 14.98C70.6061 16.3533 70.2994 17.5733 69.6861 18.64C69.0861 19.7067 68.2261 20.5333 67.1061 21.12C65.9994 21.7067 64.7128 22 63.2461 22H57.9861V7.96H63.2461ZM63.0261 19.04C64.3194 19.04 65.3261 18.6867 66.0461 17.98C66.7661 17.2733 67.1261 16.2733 67.1261 14.98C67.1261 13.6867 66.7661 12.68 66.0461 11.96C65.3261 11.24 64.3194 10.88 63.0261 10.88H61.4061V19.04H63.0261ZM88.4173 7.96V22H84.9973V13.58L81.8573 22H79.0973L75.9373 13.56V22H72.5173V7.96H76.5573L80.4973 17.68L84.3973 7.96H88.4173ZM94.2967 7.96V22H90.8767V7.96H94.2967ZM109.335 22H105.915L100.195 13.34V22H96.7752V7.96H100.195L105.915 16.66V7.96H109.335V22ZM115.234 7.96V22H111.814V7.96H115.234ZM122.793 22.14C121.766 22.14 120.846 21.9733 120.033 21.64C119.219 21.3067 118.566 20.8133 118.073 20.16C117.593 19.5067 117.339 18.72 117.313 17.8H120.953C121.006 18.32 121.186 18.72 121.493 19C121.799 19.2667 122.199 19.4 122.693 19.4C123.199 19.4 123.599 19.2867 123.893 19.06C124.186 18.82 124.333 18.4933 124.333 18.08C124.333 17.7333 124.213 17.4467 123.973 17.22C123.746 16.9933 123.459 16.8067 123.113 16.66C122.779 16.5133 122.299 16.3467 121.673 16.16C120.766 15.88 120.026 15.6 119.453 15.32C118.879 15.04 118.386 14.6267 117.973 14.08C117.559 13.5333 117.353 12.82 117.353 11.94C117.353 10.6333 117.826 9.61333 118.773 8.88C119.719 8.13333 120.953 7.76 122.473 7.76C124.019 7.76 125.266 8.13333 126.213 8.88C127.159 9.61333 127.666 10.64 127.733 11.96H124.033C124.006 11.5067 123.839 11.1533 123.533 10.9C123.226 10.6333 122.833 10.5 122.353 10.5C121.939 10.5 121.606 10.6133 121.353 10.84C121.099 11.0533 120.973 11.3667 120.973 11.78C120.973 12.2333 121.186 12.5867 121.613 12.84C122.039 13.0933 122.706 13.3667 123.613 13.66C124.519 13.9667 125.253 14.26 125.813 14.54C126.386 14.82 126.879 15.2267 127.293 15.76C127.706 16.2933 127.913 16.98 127.913 17.82C127.913 18.62 127.706 19.3467 127.293 20C126.893 20.6533 126.306 21.1733 125.533 21.56C124.759 21.9467 123.846 22.14 122.793 22.14ZM140.117 7.96V10.7H136.397V22H132.977V10.7H129.257V7.96H140.117ZM148.994 22L146.074 16.7H145.254V22H141.834V7.96H147.574C148.68 7.96 149.62 8.15333 150.394 8.54C151.18 8.92667 151.767 9.46 152.154 10.14C152.54 10.8067 152.734 11.5533 152.734 12.38C152.734 13.3133 152.467 14.1467 151.934 14.88C151.414 15.6133 150.64 16.1333 149.614 16.44L152.854 22H148.994ZM145.254 14.28H147.374C148 14.28 148.467 14.1267 148.774 13.82C149.094 13.5133 149.254 13.08 149.254 12.52C149.254 11.9867 149.094 11.5667 148.774 11.26C148.467 10.9533 148 10.8 147.374 10.8H145.254V14.28ZM163.621 19.52H158.381L157.541 22H153.961L159.041 7.96H163.001L168.081 22H164.461L163.621 19.52ZM162.741 16.88L161.001 11.74L159.281 16.88H162.741ZM179.727 7.96V10.7H176.007V22H172.587V10.7H168.867V7.96H179.727ZM188.083 22.14C186.763 22.14 185.55 21.8333 184.443 21.22C183.35 20.6067 182.476 19.7533 181.823 18.66C181.183 17.5533 180.863 16.3133 180.863 14.94C180.863 13.5667 181.183 12.3333 181.823 11.24C182.476 10.1467 183.35 9.29333 184.443 8.68C185.55 8.06667 186.763 7.76 188.083 7.76C189.403 7.76 190.61 8.06667 191.703 8.68C192.81 9.29333 193.676 10.1467 194.303 11.24C194.943 12.3333 195.263 13.5667 195.263 14.94C195.263 16.3133 194.943 17.5533 194.303 18.66C193.663 19.7533 192.796 20.6067 191.703 21.22C190.61 21.8333 189.403 22.14 188.083 22.14ZM188.083 19.02C189.203 19.02 190.096 18.6467 190.763 17.9C191.443 17.1533 191.783 16.1667 191.783 14.94C191.783 13.7 191.443 12.7133 190.763 11.98C190.096 11.2333 189.203 10.86 188.083 10.86C186.95 10.86 186.043 11.2267 185.363 11.96C184.696 12.6933 184.363 13.6867 184.363 14.94C184.363 16.18 184.696 17.1733 185.363 17.92C186.043 18.6533 186.95 19.02 188.083 19.02ZM204.326 22L201.406 16.7H200.586V22H197.166V7.96H202.906C204.012 7.96 204.952 8.15333 205.726 8.54C206.512 8.92667 207.099 9.46 207.486 10.14C207.872 10.8067 208.066 11.5533 208.066 12.38C208.066 13.3133 207.799 14.1467 207.266 14.88C206.746 15.6133 205.972 16.1333 204.946 16.44L208.186 22H204.326ZM200.586 14.28H202.706C203.332 14.28 203.799 14.1267 204.106 13.82C204.426 13.5133 204.586 13.08 204.586 12.52C204.586 11.9867 204.426 11.5667 204.106 11.26C203.799 10.9533 203.332 10.8 202.706 10.8H200.586V14.28ZM213.633 7.96V22H210.213V7.96H213.633Z" fill="#595959" fill-opacity="0.5"/>
<path d="M12.498 22.5C12.498 17.4023 16.3184 13.2012 21.2461 12.5859C21.2461 12.5332 21.2461 12.498 21.2461 12.498C21.5684 12.0293 22.4941 11.25 22.4941 9.99609C22.4941 8.74219 21.2461 7.49414 21.2461 6.87305C21.252 1.875 18.7031 0 15 0C11.4551 0 8.74805 1.875 8.74805 6.87305C8.74805 7.5 7.5 8.74805 7.5 9.99609C7.5 11.2441 8.39063 12.0703 8.74805 12.498C8.74805 12.498 8.74805 13.7461 9.375 15.6211C9.375 16.248 10.623 16.8691 11.25 17.4961C11.25 18.123 11.25 18.7441 10.623 19.998L3.75 21.252C1.24805 21.873 0 26.25 0 30H15.9023C13.8223 28.166 12.498 25.4883 12.498 22.5ZM22.5 15C18.3574 15 15 18.3574 15 22.5C15 26.6426 18.3574 30 22.5 30C26.6426 30 30 26.6426 30 22.5C30 18.3574 26.6426 15 22.5 15ZM27.498 23.748H23.748V27.498H21.2461V23.748H17.4961V21.2461H21.2461V17.4961H23.748V21.2461H27.498V23.748Z" fill="#595959" fill-opacity="0.5"/>
</svg>
