<svg width="30" height="30" viewBox="0 0 30 30" fill="none" xmlns="http://www.w3.org/2000/svg">
<g clip-path="url(#clip0_19_141)">
<path d="M4.07894 27.6206C4.07894 27.6206 4.05166 28.2913 4.70759 28.2913C5.52381 28.2913 12.2695 28.2822 12.2695 28.2822L12.2809 22.0856C12.2809 22.0856 12.1741 21.0647 13.1642 21.0647H16.3029C17.4749 21.0647 17.4033 22.0856 17.4033 22.0856L17.3897 28.2629C17.3897 28.2629 23.7875 28.2629 24.7925 28.2629C25.6246 28.2629 25.5871 27.4285 25.5871 27.4285V16.0015L15.1536 6.7218L4.07894 16.0026V27.6206Z" fill="#595959" fill-opacity="0.5"/>
<path d="M0.00012207 15.1387C0.00012207 15.1387 0.939114 16.8711 2.99103 15.1387L15.2468 4.76997L26.7364 15.0739C29.11 16.7859 30.0001 15.0739 30.0001 15.0739L15.2468 1.70972L0.00012207 15.1387Z" fill="#595959" fill-opacity="0.5"/>
<path d="M26.4567 4.74609H23.5022L23.5147 8.33041L26.4567 10.8279V4.74609Z" fill="#595959" fill-opacity="0.5"/>
</g>
<defs>
<clipPath id="clip0_19_141">
<rect width="30" height="30" fill="white" transform="translate(0.00012207)"/>
</clipPath>
</defs>
</svg>
