<svg width="30" height="30" viewBox="0 0 30 30" fill="none" xmlns="http://www.w3.org/2000/svg">
<path d="M4.07877 27.6206C4.07877 27.6206 4.05149 28.2913 4.70742 28.2913C5.52364 28.2913 12.2694 28.2822 12.2694 28.2822L12.2807 22.0856C12.2807 22.0856 12.1739 21.0647 13.164 21.0647H16.3027C17.4748 21.0647 17.4031 22.0856 17.4031 22.0856L17.3895 28.2629C17.3895 28.2629 23.7874 28.2629 24.7923 28.2629C25.6244 28.2629 25.5869 27.4285 25.5869 27.4285V16.0015L15.1534 6.7218L4.07877 16.0026C4.07877 16.0026 4.07877 27.6206 4.07877 27.6206Z" fill="#595959"/>
<path d="M0 15.1387C0 15.1387 0.938992 16.8711 2.99091 15.1387L15.2467 4.76997L26.7363 15.0739C29.1099 16.7859 30 15.0739 30 15.0739L15.2467 1.70972L0 15.1387Z" fill="#595959"/>
<path d="M26.4566 4.74609H23.5021L23.5146 8.33041L26.4566 10.8279V4.74609Z" fill="#595959"/>
</svg>
