<svg width="166" height="31" viewBox="0 0 166 31" fill="none" xmlns="http://www.w3.org/2000/svg">
<path d="M51.38 23L46.66 16.8V23H43.24V8.96H46.66V15.12L51.34 8.96H55.36L49.92 15.84L55.56 23H51.38ZM65.9253 20.52H60.6853L59.8453 23H56.2653L61.3453 8.96H65.3053L70.3853 23H66.7653L65.9253 20.52ZM65.0453 17.88L63.3053 12.74L61.5853 17.88H65.0453ZM82.0314 8.96V11.7H78.3114V23H74.8914V11.7H71.1714V8.96H82.0314ZM87.1678 11.7V14.54H91.7478V17.18H87.1678V20.26H92.3478V23H83.7478V8.96H92.3478V11.7H87.1678ZM103.888 13.4C103.635 12.9333 103.268 12.58 102.788 12.34C102.321 12.0867 101.768 11.96 101.128 11.96C100.021 11.96 99.1348 12.3267 98.4681 13.06C97.8015 13.78 97.4681 14.7467 97.4681 15.96C97.4681 17.2533 97.8148 18.2667 98.5081 19C99.2148 19.72 100.181 20.08 101.408 20.08C102.248 20.08 102.955 19.8667 103.528 19.44C104.115 19.0133 104.541 18.4 104.808 17.6H100.468V15.08H107.908V18.26C107.655 19.1133 107.221 19.9067 106.608 20.64C106.008 21.3733 105.241 21.9667 104.308 22.42C103.375 22.8733 102.321 23.1 101.148 23.1C99.7615 23.1 98.5215 22.8 97.4281 22.2C96.3481 21.5867 95.5015 20.74 94.8881 19.66C94.2881 18.58 93.9881 17.3467 93.9881 15.96C93.9881 14.5733 94.2881 13.34 94.8881 12.26C95.5015 11.1667 96.3481 10.32 97.4281 9.72C98.5081 9.10667 99.7415 8.8 101.128 8.8C102.808 8.8 104.221 9.20667 105.368 10.02C106.528 10.8333 107.295 11.96 107.668 13.4H103.888ZM116.443 23.14C115.123 23.14 113.909 22.8333 112.803 22.22C111.709 21.6067 110.836 20.7533 110.183 19.66C109.542 18.5533 109.222 17.3133 109.222 15.94C109.222 14.5667 109.542 13.3333 110.183 12.24C110.836 11.1467 111.709 10.2933 112.803 9.68C113.909 9.06667 115.123 8.76 116.443 8.76C117.763 8.76 118.969 9.06667 120.063 9.68C121.169 10.2933 122.036 11.1467 122.663 12.24C123.303 13.3333 123.623 14.5667 123.623 15.94C123.623 17.3133 123.303 18.5533 122.663 19.66C122.023 20.7533 121.156 21.6067 120.063 22.22C118.969 22.8333 117.763 23.14 116.443 23.14ZM116.443 20.02C117.563 20.02 118.456 19.6467 119.122 18.9C119.803 18.1533 120.143 17.1667 120.143 15.94C120.143 14.7 119.803 13.7133 119.122 12.98C118.456 12.2333 117.563 11.86 116.443 11.86C115.309 11.86 114.403 12.2267 113.723 12.96C113.056 13.6933 112.723 14.6867 112.723 15.94C112.723 17.18 113.056 18.1733 113.723 18.92C114.403 19.6533 115.309 20.02 116.443 20.02ZM132.685 23L129.765 17.7H128.945V23H125.525V8.96H131.265C132.372 8.96 133.312 9.15333 134.085 9.54C134.872 9.92667 135.458 10.46 135.845 11.14C136.232 11.8067 136.425 12.5533 136.425 13.38C136.425 14.3133 136.158 15.1467 135.625 15.88C135.105 16.6133 134.332 17.1333 133.305 17.44L136.545 23H132.685ZM128.945 15.28H131.065C131.692 15.28 132.158 15.1267 132.465 14.82C132.785 14.5133 132.945 14.08 132.945 13.52C132.945 12.9867 132.785 12.5667 132.465 12.26C132.158 11.9533 131.692 11.8 131.065 11.8H128.945V15.28ZM141.992 8.96V23H138.572V8.96H141.992ZM153.27 8.96V18.52C153.27 20 152.85 21.14 152.01 21.94C151.184 22.74 150.064 23.14 148.65 23.14C147.17 23.14 145.984 22.72 145.09 21.88C144.197 21.04 143.75 19.8467 143.75 18.3H147.15C147.15 18.8867 147.27 19.3333 147.51 19.64C147.75 19.9333 148.097 20.08 148.55 20.08C148.964 20.08 149.284 19.9467 149.51 19.68C149.737 19.4133 149.85 19.0267 149.85 18.52V8.96H153.27ZM159.453 11.7V14.54H164.033V17.18H159.453V20.26H164.633V23H156.033V8.96H164.633V11.7H159.453Z" fill="#595959" fill-opacity="0.5"/>
<path d="M0 3.12463V9.37494H6.25031V3.12463H0ZM5.31281 8.43744H0.9375V4.06213H5.31281V8.43744Z" fill="#595959" fill-opacity="0.5"/>
<path d="M27.4998 4.67151H8.74976V5.60901H27.4998V4.67151Z" fill="#595959" fill-opacity="0.5"/>
<path d="M30.0001 7.03125H8.74976V7.96875H30.0001V7.03125Z" fill="#595959" fill-opacity="0.5"/>
<path d="M0 11.8754V18.1257H6.25031V11.8754H0ZM5.31281 17.1872H0.9375V12.8119H5.31281V17.1872Z" fill="#595959" fill-opacity="0.5"/>
<path d="M27.4998 13.4213H8.74976V14.3588H27.4998V13.4213Z" fill="#595959" fill-opacity="0.5"/>
<path d="M30.0001 15.7809H8.74976V16.7184H30.0001V15.7809Z" fill="#595959" fill-opacity="0.5"/>
<path d="M0 20.625V26.8753H6.25031V20.625H0ZM5.31281 25.9378H0.9375V21.5625H5.31281V25.9378Z" fill="#595959" fill-opacity="0.5"/>
<path d="M27.4998 22.1719H8.74976V23.1094H27.4998V22.1719Z" fill="#595959" fill-opacity="0.5"/>
<path d="M30.0001 24.5344H8.74976V25.4719H30.0001V24.5344Z" fill="#595959" fill-opacity="0.5"/>
<path d="M3.12469 7.49999C3.81487 7.49999 4.37437 6.94048 4.37437 6.2503C4.37437 5.56011 3.81487 5.00061 3.12469 5.00061C2.4345 5.00061 1.875 5.56011 1.875 6.2503C1.875 6.94048 2.4345 7.49999 3.12469 7.49999Z" fill="#595959" fill-opacity="0.5"/>
<path d="M3.12469 16.2497C3.81487 16.2497 4.37437 15.6902 4.37437 15.0001C4.37437 14.3099 3.81487 13.7504 3.12469 13.7504C2.4345 13.7504 1.875 14.3099 1.875 15.0001C1.875 15.6902 2.4345 16.2497 3.12469 16.2497Z" fill="#595959" fill-opacity="0.5"/>
<path d="M3.12469 24.9994C3.81487 24.9994 4.37437 24.4399 4.37437 23.7497C4.37437 23.0595 3.81487 22.5 3.12469 22.5C2.4345 22.5 1.875 23.0595 1.875 23.7497C1.875 24.4399 2.4345 24.9994 3.12469 24.9994Z" fill="#595959" fill-opacity="0.5"/>
</svg>
