<svg width="95" height="21" viewBox="0 0 95 21" fill="none" xmlns="http://www.w3.org/2000/svg">
<path d="M32.164 10.288C32.164 10.776 32.052 11.224 31.828 11.632C31.604 12.032 31.26 12.356 30.796 12.604C30.332 12.852 29.756 12.976 29.068 12.976H27.796V16H25.744V7.576H29.068C29.74 7.576 30.308 7.692 30.772 7.924C31.236 8.156 31.584 8.476 31.816 8.884C32.048 9.292 32.164 9.76 32.164 10.288ZM28.912 11.344C29.304 11.344 29.596 11.252 29.788 11.068C29.98 10.884 30.076 10.624 30.076 10.288C30.076 9.952 29.98 9.692 29.788 9.508C29.596 9.324 29.304 9.232 28.912 9.232H27.796V11.344H28.912ZM37.5283 16L35.7763 12.82H35.2843V16H33.2323V7.576H36.6763C37.3403 7.576 37.9043 7.692 38.3683 7.924C38.8403 8.156 39.1923 8.476 39.4243 8.884C39.6563 9.284 39.7723 9.732 39.7723 10.228C39.7723 10.788 39.6123 11.288 39.2923 11.728C38.9803 12.168 38.5163 12.48 37.9003 12.664L39.8443 16H37.5283ZM35.2843 11.368H36.5563C36.9323 11.368 37.2123 11.276 37.3963 11.092C37.5883 10.908 37.6843 10.648 37.6843 10.312C37.6843 9.992 37.5883 9.74 37.3963 9.556C37.2123 9.372 36.9323 9.28 36.5563 9.28H35.2843V11.368ZM43.0764 7.576V12.616C43.0764 13.12 43.2004 13.508 43.4484 13.78C43.6964 14.052 44.0604 14.188 44.5404 14.188C45.0204 14.188 45.3884 14.052 45.6444 13.78C45.9004 13.508 46.0284 13.12 46.0284 12.616V7.576H48.0804V12.604C48.0804 13.356 47.9204 13.992 47.6004 14.512C47.2804 15.032 46.8484 15.424 46.3044 15.688C45.7684 15.952 45.1684 16.084 44.5044 16.084C43.8404 16.084 43.2444 15.956 42.7164 15.7C42.1964 15.436 41.7844 15.044 41.4804 14.524C41.1764 13.996 41.0244 13.356 41.0244 12.604V7.576H43.0764ZM51.7053 14.32H55.3293V16H49.3773V14.44L52.9773 9.256H49.3773V7.576H55.3293V9.136L51.7053 14.32ZM54.2133 6.148L52.3533 7.096L50.4933 6.148V4.732L52.3533 5.776L54.2133 4.732V6.148ZM61.9138 14.512H58.7698L58.2658 16H56.1178L59.1658 7.576H61.5418L64.5898 16H62.4178L61.9138 14.512ZM61.3858 12.928L60.3418 9.844L59.3098 12.928H61.3858ZM71.5774 7.576V9.22H69.3454V16H67.2934V9.22H65.0614V7.576H71.5774ZM74.6593 9.22V10.924H77.4073V12.508H74.6593V14.356H77.7673V16H72.6073V7.576H77.7673V9.22H74.6593ZM81.1515 14.416H83.8395V16H79.0995V7.576H81.1515V14.416ZM90.0982 7.576V13.312C90.0982 14.2 89.8462 14.884 89.3422 15.364C88.8462 15.844 88.1742 16.084 87.3262 16.084C86.4382 16.084 85.7262 15.832 85.1902 15.328C84.6542 14.824 84.3862 14.108 84.3862 13.18H86.4262C86.4262 13.532 86.4982 13.8 86.6422 13.984C86.7862 14.16 86.9942 14.248 87.2662 14.248C87.5142 14.248 87.7062 14.168 87.8422 14.008C87.9782 13.848 88.0462 13.616 88.0462 13.312V7.576H90.0982ZM93.8077 7.576V16H91.7557V7.576H93.8077Z" fill="#595959" fill-opacity="0.5"/>
<path d="M2.7191 18.4138C2.7191 18.4138 2.70091 18.8609 3.1382 18.8609C3.68234 18.8609 8.1795 18.8548 8.1795 18.8548L8.18708 14.7237C8.18708 14.7237 8.11584 14.0432 8.77594 14.0432H10.8684C11.6498 14.0432 11.602 14.7237 11.602 14.7237L11.5929 18.8419C11.5929 18.8419 15.8582 18.8419 16.5281 18.8419C17.0829 18.8419 17.0579 18.2857 17.0579 18.2857V10.6676L10.1022 4.4812L2.7191 10.6684V18.4138Z" fill="#595959" fill-opacity="0.5"/>
<path d="M0 10.0924C0 10.0924 0.625995 11.2474 1.99394 10.0924L10.1645 3.17994L17.8242 10.0492C19.4066 11.1905 20 10.0492 20 10.0492L10.1645 1.13977L0 10.0924Z" fill="#595959" fill-opacity="0.5"/>
<path d="M17.6377 3.16406H15.668L15.6763 5.5536L17.6377 7.21863V3.16406Z" fill="#595959" fill-opacity="0.5"/>
</svg>
