<svg width="16" height="16" viewBox="0 0 16 16" fill="none" xmlns="http://www.w3.org/2000/svg">
<g clip-path="url(#clip0_706_2)">
<path d="M15.9139 15.4986L12.0304 11.615C13.1652 10.3806 13.8592 8.73481 13.8592 6.92987C13.8592 3.10867 10.7507 0 6.9298 0C3.10874 0 0 3.10867 0 6.9298C0 10.7507 3.10867 13.8592 6.92974 13.8592C8.73475 13.8592 10.3805 13.1653 11.6149 12.0304L15.4985 15.9139C15.5558 15.9713 15.631 16 15.7062 16C15.7813 16 15.8565 15.9713 15.9139 15.9139C16.0287 15.7992 16.0287 15.6133 15.9139 15.4986ZM0.587476 6.9298C0.587476 3.43263 3.43263 0.587476 6.9298 0.587476C10.4267 0.587476 13.2717 3.43263 13.2717 6.9298C13.2717 10.4267 10.4267 13.2717 6.9298 13.2717C3.43256 13.2717 0.587476 10.4267 0.587476 6.9298Z" fill="#FFA800"/>
<path d="M7.13739 3.73183C7.02262 3.61706 6.83668 3.61706 6.72191 3.73183L3.67734 6.77621C3.56263 6.89092 3.56263 7.07692 3.67734 7.19163C3.73476 7.24898 3.80984 7.27769 3.88505 7.27769C3.96019 7.27769 4.0354 7.24898 4.09275 7.19169L4.48286 6.80158V9.13697C4.48286 9.2992 4.61433 9.43074 4.77657 9.43074H9.08216C9.24439 9.43074 9.37586 9.2992 9.37586 9.13697V6.80119L9.76629 7.19163C9.88106 7.30633 10.067 7.30633 10.1818 7.19163C10.2965 7.07692 10.2965 6.89092 10.1818 6.77621L7.13739 3.73183ZM8.78851 8.8432H5.07034V6.2141L6.92962 4.35489L8.78845 6.21372V8.8432H8.78851Z" fill="#FFA800"/>
</g>
<defs>
<clipPath id="clip0_706_2">
<rect width="16" height="16" fill="white"/>
</clipPath>
</defs>
</svg>
