<svg width="15" height="15" viewBox="0 0 15 15" fill="none" xmlns="http://www.w3.org/2000/svg">
<path d="M12.8276 7.90784L10.6557 5.73541H11.9288L11.8923 5.64049C11.1378 3.73084 9.27425 2.37568 7.0927 2.37568C4.24404 2.37568 1.93379 4.6854 1.93379 7.53245C1.93379 10.3833 4.24404 12.693 7.0927 12.693C9.18791 12.693 10.9919 11.5518 11.7985 9.75476L13.8653 9.77567C13.8583 9.79176 12.2393 14.5581 7.05838 14.5581C3.16024 14.5587 0 11.3979 0 7.50081C0 3.60106 3.16024 0.441895 7.05785 0.441895C10.3184 0.441895 13.0614 2.64918 13.8733 5.65175L13.8905 5.73541H15L12.8276 7.90784Z" fill="#1338B9"/>
</svg>
