<svg width="119" height="31" viewBox="0 0 119 31" fill="none" xmlns="http://www.w3.org/2000/svg">
<path d="M46.6 8.96V17.36C46.6 18.2 46.8067 18.8467 47.22 19.3C47.6333 19.7533 48.24 19.98 49.04 19.98C49.84 19.98 50.4533 19.7533 50.88 19.3C51.3067 18.8467 51.52 18.2 51.52 17.36V8.96H54.94V17.34C54.94 18.5933 54.6733 19.6533 54.14 20.52C53.6067 21.3867 52.8867 22.04 51.98 22.48C51.0867 22.92 50.0867 23.14 48.98 23.14C47.8733 23.14 46.88 22.9267 46 22.5C45.1333 22.06 44.4467 21.4067 43.94 20.54C43.4333 19.66 43.18 18.5933 43.18 17.34V8.96H46.6ZM62.4216 23.14C61.3949 23.14 60.4749 22.9733 59.6616 22.64C58.8482 22.3067 58.1949 21.8133 57.7016 21.16C57.2216 20.5067 56.9682 19.72 56.9416 18.8H60.5816C60.6349 19.32 60.8149 19.72 61.1216 20C61.4282 20.2667 61.8282 20.4 62.3216 20.4C62.8282 20.4 63.2282 20.2867 63.5216 20.06C63.8149 19.82 63.9616 19.4933 63.9616 19.08C63.9616 18.7333 63.8416 18.4467 63.6016 18.22C63.3749 17.9933 63.0882 17.8067 62.7416 17.66C62.4082 17.5133 61.9282 17.3467 61.3016 17.16C60.3949 16.88 59.6549 16.6 59.0816 16.32C58.5082 16.04 58.0149 15.6267 57.6016 15.08C57.1882 14.5333 56.9816 13.82 56.9816 12.94C56.9816 11.6333 57.4549 10.6133 58.4016 9.88C59.3482 9.13333 60.5816 8.76 62.1016 8.76C63.6482 8.76 64.8949 9.13333 65.8416 9.88C66.7882 10.6133 67.2949 11.64 67.3616 12.96H63.6616C63.6349 12.5067 63.4682 12.1533 63.1616 11.9C62.8549 11.6333 62.4616 11.5 61.9816 11.5C61.5682 11.5 61.2349 11.6133 60.9816 11.84C60.7282 12.0533 60.6016 12.3667 60.6016 12.78C60.6016 13.2333 60.8149 13.5867 61.2416 13.84C61.6682 14.0933 62.3349 14.3667 63.2416 14.66C64.1482 14.9667 64.8816 15.26 65.4416 15.54C66.0149 15.82 66.5082 16.2267 66.9216 16.76C67.3349 17.2933 67.5416 17.98 67.5416 18.82C67.5416 19.62 67.3349 20.3467 66.9216 21C66.5216 21.6533 65.9349 22.1733 65.1616 22.56C64.3882 22.9467 63.4749 23.14 62.4216 23.14ZM73.0663 20.36H77.5463V23H69.6463V8.96H73.0663V20.36ZM82.5375 8.96V17.36C82.5375 18.2 82.7442 18.8467 83.1575 19.3C83.5708 19.7533 84.1775 19.98 84.9775 19.98C85.7775 19.98 86.3908 19.7533 86.8175 19.3C87.2442 18.8467 87.4575 18.2 87.4575 17.36V8.96H90.8775V17.34C90.8775 18.5933 90.6108 19.6533 90.0775 20.52C89.5442 21.3867 88.8242 22.04 87.9175 22.48C87.0242 22.92 86.0242 23.14 84.9175 23.14C83.8108 23.14 82.8175 22.9267 81.9375 22.5C81.0708 22.06 80.3842 21.4067 79.8775 20.54C79.3708 19.66 79.1175 18.5933 79.1175 17.34V8.96H82.5375ZM102.599 13.4C102.346 12.9333 101.979 12.58 101.499 12.34C101.032 12.0867 100.479 11.96 99.8391 11.96C98.7324 11.96 97.8457 12.3267 97.1791 13.06C96.5124 13.78 96.1791 14.7467 96.1791 15.96C96.1791 17.2533 96.5257 18.2667 97.2191 19C97.9257 19.72 98.8924 20.08 100.119 20.08C100.959 20.08 101.666 19.8667 102.239 19.44C102.826 19.0133 103.252 18.4 103.519 17.6H99.1791V15.08H106.619V18.26C106.366 19.1133 105.932 19.9067 105.319 20.64C104.719 21.3733 103.952 21.9667 103.019 22.42C102.086 22.8733 101.032 23.1 99.8591 23.1C98.4724 23.1 97.2324 22.8 96.1391 22.2C95.0591 21.5867 94.2124 20.74 93.5991 19.66C92.9991 18.58 92.6991 17.3467 92.6991 15.96C92.6991 14.5733 92.9991 13.34 93.5991 12.26C94.2124 11.1667 95.0591 10.32 96.1391 9.72C97.2191 9.10667 98.4524 8.8 99.8391 8.8C101.519 8.8 102.932 9.20667 104.079 10.02C105.239 10.8333 106.006 11.96 106.379 13.4H102.599ZM111.933 11.7V14.54H116.513V17.18H111.933V20.26H117.113V23H108.513V8.96H117.113V11.7H111.933Z" fill="#595959" fill-opacity="0.5"/>
<g clip-path="url(#clip0_151_2)">
<path d="M29.7556 9.94436L28.9306 8.70389C28.5024 8.06028 27.6466 7.86217 26.9793 8.25199L16.5444 14.781L11.1324 13.2954L15.7214 13.2939C16.11 13.2938 16.4825 13.1386 16.7565 12.8626C17.0303 12.5869 17.1791 12.2132 17.1765 11.8244L17.1713 10.5507C17.1656 9.74886 16.5143 9.10173 15.7122 9.10145L7.54514 9.09934C7.545 9.09934 7.545 9.09934 7.54486 9.09934C7.15448 9.09934 6.78051 9.2557 6.5063 9.53343L0.420939 15.6977C-0.120659 16.2461 -0.142272 17.1212 0.371447 17.6957L3.73741 21.4606C4.02049 21.7774 4.41903 21.9474 4.82574 21.9474C5.02252 21.9474 5.22105 21.9077 5.4093 21.8254L9.69111 19.956L17.3787 19.9546C17.676 19.9546 17.966 19.8638 18.2102 19.6945L29.3724 11.9519C30.0254 11.4988 30.1959 10.6063 29.7556 9.94436Z" fill="#595959" fill-opacity="0.5"/>
</g>
<defs>
<clipPath id="clip0_151_2">
<rect width="30" height="30" fill="white"/>
</clipPath>
</defs>
</svg>
