<svg width="30" height="30" viewBox="0 0 30 30" fill="none" xmlns="http://www.w3.org/2000/svg">
<path d="M12.498 22.5C12.498 17.4023 16.3184 13.2012 21.2461 12.5859C21.2461 12.5332 21.2461 12.498 21.2461 12.498C21.5684 12.0293 22.4941 11.25 22.4941 9.99609C22.4941 8.74219 21.2461 7.49414 21.2461 6.87305C21.252 1.875 18.7031 0 15 0C11.4551 0 8.74805 1.875 8.74805 6.87305C8.74805 7.5 7.5 8.74805 7.5 9.99609C7.5 11.2441 8.39063 12.0703 8.74805 12.498C8.74805 12.498 8.74805 13.7461 9.375 15.6211C9.375 16.248 10.623 16.8691 11.25 17.4961C11.25 18.123 11.25 18.7441 10.623 19.998L3.75 21.252C1.24805 21.873 0 26.25 0 30H15.9023C13.8223 28.166 12.498 25.4883 12.498 22.5ZM22.5 15C18.3574 15 15 18.3574 15 22.5C15 26.6426 18.3574 30 22.5 30C26.6426 30 30 26.6426 30 22.5C30 18.3574 26.6426 15 22.5 15ZM27.498 23.748H23.748V27.498H21.2461V23.748H17.4961V21.2461H21.2461V17.4961H23.748V21.2461H27.498V23.748Z" fill="#595959"/>
</svg>
