<svg width="20" height="20" viewBox="0 0 20 20" fill="none" xmlns="http://www.w3.org/2000/svg">
<path d="M2.18654 7.76685C2.18654 7.76685 2.80426 6.97064 2.40477 5.86487C2.00387 4.7598 1.07032 4.34009 1.07032 4.34009C1.07032 4.34009 0.371719 5.28898 0.762154 6.36616C1.15189 7.44404 2.18654 7.76685 2.18654 7.76685Z" fill="#858585"/>
<path d="M3.90099 8.33225C3.90099 8.33225 4.98096 8.24579 5.59938 7.28016C6.2178 6.31523 5.7451 5.23596 5.7451 5.23596C5.7451 5.23596 4.74252 5.43955 4.10736 6.43027C3.47291 7.4203 3.90099 8.33225 3.90099 8.33225Z" fill="#858585"/>
<path d="M4.01033 9.60817C3.51043 10.6728 4.05355 11.522 4.05355 11.522C4.05355 11.522 5.114 11.2947 5.60065 10.258C6.0866 9.21983 5.47724 8.21167 5.47724 8.21167C5.47724 8.21167 4.51022 8.54354 4.01033 9.60817Z" fill="#858585"/>
<path d="M6.45134 10.4657C6.45134 10.4657 5.51918 10.8882 5.12177 11.994C4.72436 13.1018 5.34418 13.8952 5.34418 13.8952C5.34418 13.8952 6.37744 13.5697 6.76508 12.4911C7.15203 11.4125 6.45134 10.4657 6.45134 10.4657Z" fill="#858585"/>
<path d="M7.22828 16.2887C7.22828 16.2887 8.12488 15.6786 8.18554 14.5345C8.2455 13.3897 7.30079 12.6855 7.30079 12.6855C7.30079 12.6855 6.52968 13.3583 6.46763 14.5324C6.40627 15.7058 7.22828 16.2887 7.22828 16.2887Z" fill="#858585"/>
<path d="M3.5637 5.63616C3.5637 5.63616 4.51957 5.31684 4.79984 4.17552C5.08082 3.03419 4.5377 2.16687 4.5377 2.16687C4.5377 2.16687 3.43054 2.56846 3.15653 3.68189C2.88323 4.79463 3.5637 5.63616 3.5637 5.63616Z" fill="#858585"/>
<path d="M2.18595 10.1937C2.18595 10.1937 2.54082 9.25042 1.83316 8.31268C1.1241 7.37424 0.108976 7.24805 0.108976 7.24805C0.108976 7.24805 -0.27867 8.36078 0.411562 9.27552C1.10179 10.1909 2.18595 10.1937 2.18595 10.1937Z" fill="#858585"/>
<path d="M2.97782 12.6828C2.97782 12.6828 3.11377 11.6844 2.21577 10.9272C1.31638 10.1694 0.298461 10.2725 0.298461 10.2725C0.298461 10.2725 0.167387 11.4439 1.04308 12.1822C1.92016 12.9198 2.97782 12.6828 2.97782 12.6828Z" fill="#858585"/>
<path d="M4.18429 14.741C4.18429 14.741 4.01348 13.7481 2.92723 13.2991C1.84029 12.8488 0.901855 13.2552 0.901855 13.2552C0.901855 13.2552 1.13193 14.4112 2.19029 14.8504C3.24865 15.2876 4.18429 14.741 4.18429 14.741Z" fill="#858585"/>
<path d="M4.71114 15.5958C3.57888 15.2792 2.69482 15.7945 2.69482 15.7945C2.69482 15.7945 3.06086 16.9142 4.16383 17.223C5.26821 17.5319 6.13134 16.8772 6.13134 16.8772C6.13134 16.8772 5.8434 15.9116 4.71114 15.5958Z" fill="#858585"/>
<path d="M3.6813 6.3166L3.17792 6.06909C3.15143 6.12417 0.562011 11.6244 7.83803 17.8442L8.20197 17.4182C1.27455 11.4954 3.57951 6.52506 3.6813 6.3166Z" fill="#858585"/>
<path d="M17.813 7.75635C17.813 7.75635 17.1946 6.96014 17.5948 5.85507C17.9943 4.74931 18.9285 4.32959 18.9285 4.32959C18.9285 4.32959 19.6264 5.27779 19.236 6.35567C18.8476 7.43354 17.813 7.75635 17.813 7.75635Z" fill="#858585"/>
<path d="M16.0986 8.32187C16.0986 8.32187 15.0187 8.23472 14.3995 7.26979C13.7811 6.30486 14.2538 5.22559 14.2538 5.22559C14.2538 5.22559 15.2564 5.42917 15.8922 6.4192C16.5267 7.40993 16.0986 8.32187 16.0986 8.32187Z" fill="#858585"/>
<path d="M15.9892 9.59706C16.4891 10.6617 15.946 11.5109 15.946 11.5109C15.946 11.5109 14.8855 11.2836 14.3982 10.2469C13.9129 9.20872 14.5216 8.20056 14.5216 8.20056C14.5216 8.20056 15.4893 8.53313 15.9892 9.59706Z" fill="#858585"/>
<path d="M13.5482 10.4553C13.5482 10.4553 14.4797 10.8771 14.8778 11.985C15.2752 13.0921 14.6547 13.8856 14.6547 13.8856C14.6547 13.8856 13.6221 13.5593 13.2345 12.4807C12.8468 11.4021 13.5482 10.4553 13.5482 10.4553Z" fill="#858585"/>
<path d="M12.7703 16.2777C12.7703 16.2777 11.8744 15.6683 11.8138 14.5235C11.7538 13.3787 12.6992 12.6738 12.6992 12.6738C12.6992 12.6738 13.4689 13.3466 13.5317 14.5214C13.5937 15.6962 12.7703 16.2777 12.7703 16.2777Z" fill="#858585"/>
<path d="M16.435 5.62575C16.435 5.62575 15.4805 5.30643 15.2002 4.1651C14.9193 3.02378 15.4631 2.15576 15.4631 2.15576C15.4631 2.15576 16.5702 2.55735 16.8435 3.67148C17.1168 4.78352 16.435 5.62575 16.435 5.62575Z" fill="#858585"/>
<path d="M17.8137 10.1834C17.8137 10.1834 17.4588 9.24004 18.1658 8.3023C18.8748 7.36387 19.8906 7.23767 19.8906 7.23767C19.8906 7.23767 20.279 8.35041 19.5881 9.26514C18.8971 10.1806 17.8137 10.1834 17.8137 10.1834Z" fill="#858585"/>
<path d="M17.0216 12.6724C17.0216 12.6724 16.8849 11.674 17.7836 10.9154C18.683 10.1583 19.7009 10.2614 19.7009 10.2614C19.7009 10.2614 19.832 11.4334 18.9556 12.1711C18.0792 12.9087 17.0216 12.6724 17.0216 12.6724Z" fill="#858585"/>
<path d="M15.8149 14.7305C15.8149 14.7305 15.9865 13.737 17.0727 13.2873C18.1603 12.8369 19.0981 13.2434 19.0981 13.2434C19.0981 13.2434 18.868 14.3993 17.8096 14.8379C16.7506 15.2771 15.8149 14.7305 15.8149 14.7305Z" fill="#858585"/>
<path d="M15.288 15.5853C16.4202 15.2695 17.305 15.784 17.305 15.784C17.305 15.784 16.9396 16.903 15.836 17.214C14.7323 17.5215 13.8691 16.8668 13.8691 16.8668C13.8691 16.8668 14.1564 15.9019 15.288 15.5853Z" fill="#858585"/>
<path d="M16.3176 6.30622L16.8224 6.05872C16.8489 6.11379 19.4383 11.614 12.1616 17.8331L11.7983 17.4071C18.7244 11.4858 16.4194 6.51399 16.3176 6.30622Z" fill="#858585"/>
</svg>
