<svg width="15" height="15" viewBox="0 0 15 15" fill="none" xmlns="http://www.w3.org/2000/svg">
<path d="M11.8514 1.79712H9.5165C9.40002 0.787142 8.54071 0 7.49998 0C6.45927 0 5.60009 0.787111 5.48361 1.79712H3.14861C2.2037 1.79712 1.43506 2.56598 1.43506 3.51086V3.59879C1.43506 4.32085 1.88466 4.93888 2.51802 5.1907V13.2863C2.51802 14.2312 3.28676 15 4.2316 15H10.7684C11.7133 15 12.482 14.2311 12.482 13.2863V5.19073C13.1153 4.93888 13.5649 4.32085 13.5649 3.59882V3.51089C13.5649 2.56598 12.7962 1.79712 11.8514 1.79712ZM7.49998 0.812731C8.09189 0.812731 8.58595 1.23699 8.69528 1.79712H6.3049C6.41419 1.23696 6.90828 0.812731 7.49998 0.812731ZM11.6692 13.2863C11.6692 13.7831 11.265 14.1873 10.7684 14.1873H4.23157C3.73493 14.1873 3.33072 13.783 3.33072 13.2863V5.31252H11.6692V13.2863ZM12.7522 3.59879C12.7522 4.09559 12.348 4.49982 11.8513 4.49982H3.14861C2.65197 4.49982 2.24776 4.09559 2.24776 3.59879V3.51086C2.24776 3.01406 2.65197 2.60982 3.14861 2.60982H11.8514C12.348 2.60982 12.7522 3.01406 12.7522 3.51086V3.59879H12.7522Z" fill="#CF1E1E"/>
<path d="M5.32127 13.1479C5.5457 13.1479 5.72762 12.9659 5.72762 12.7416V8.16615C5.72762 7.94178 5.54567 7.75977 5.32127 7.75977C5.09687 7.75977 4.91492 7.94178 4.91492 8.16615V12.7416C4.91489 12.966 5.09684 13.1479 5.32127 13.1479Z" fill="#CF1E1E"/>
<path d="M7.49997 13.1479C7.7244 13.1479 7.90635 12.9659 7.90635 12.7416V8.16615C7.90635 7.94178 7.72433 7.75977 7.49997 7.75977C7.27558 7.75977 7.09363 7.94178 7.09363 8.16615V12.7416C7.09363 12.966 7.27555 13.1479 7.49997 13.1479Z" fill="#CF1E1E"/>
<path d="M9.6786 13.1479C9.90299 13.1479 10.0849 12.9659 10.0849 12.7416V8.16615C10.0849 7.94178 9.90296 7.75977 9.6786 7.75977C9.45414 7.75977 9.27222 7.94178 9.27222 8.16615V12.7416C9.27219 12.966 9.4542 13.1479 9.6786 13.1479Z" fill="#CF1E1E"/>
</svg>
