<svg width="30" height="30" viewBox="0 0 50 50" fill="none" xmlns="http://www.w3.org/2000/svg">
<g clip-path="url(#clip0_63_242)">
<path d="M24.9999 0C11.2144 0 0 11.2147 0 25.0001C0 38.7854 11.2144 50.0001 24.9999 50.0001C38.7853 50.0001 50 38.7854 50 25.0001C50 11.2147 38.7853 0 24.9999 0ZM24.9999 48.3872C12.1047 48.3872 1.61284 37.8954 1.61284 25C1.61284 12.1046 12.1047 1.61284 24.9999 1.61284C37.8953 1.61284 48.3872 12.1047 48.3872 25.0001C48.3872 37.8956 37.8953 48.3872 24.9999 48.3872Z" fill="#CF2214"/>
<path d="M25.8066 15.3226H24.1938V24.1935H15.3228V25.8065H24.1938V34.6774H25.8066V25.8065H34.6776V24.1935H25.8066V15.3226Z" fill="#CF2214"/>
</g>
<defs>
<clipPath id="clip0_63_242">
<rect width="50" height="50" fill="white"/>
</clipPath>
</defs>
</svg>
