<svg width="20" height="20" viewBox="0 0 20 20" fill="none" xmlns="http://www.w3.org/2000/svg">
<g clip-path="url(#clip0_54_79)">
<path d="M9.99997 0C4.48575 0 0 4.48587 0 10.0001C0 15.5142 4.48575 20.0001 9.99997 20.0001C15.5141 20.0001 20 15.5142 20 10.0001C20 4.48587 15.5141 0 9.99997 0ZM9.99997 19.3549C4.84187 19.3549 0.645135 15.1582 0.645135 10C0.645135 4.84183 4.84187 0.645136 9.99997 0.645136C15.1581 0.645136 19.3549 4.84188 19.3549 10.0001C19.3549 15.1582 15.1581 19.3549 9.99997 19.3549Z" fill="#14760B"/>
<path d="M10.3227 6.12903H9.67756V9.67739H6.12915V10.3226H9.67756V13.8709H10.3227V10.3226H13.8711V9.67739H10.3227V6.12903Z" fill="#14760B"/>
</g>
<defs>
<clipPath id="clip0_54_79">
<rect width="20" height="20" fill="white"/>
</clipPath>
</defs>
</svg>
