<svg width="30" height="28" viewBox="0 0 30 28" fill="none" xmlns="http://www.w3.org/2000/svg">
<path d="M4.07877 26.6206C4.07877 26.6206 4.05149 27.2913 4.70742 27.2913C5.52364 27.2913 12.2694 27.2822 12.2694 27.2822L12.2807 21.0856C12.2807 21.0856 12.1739 20.0647 13.164 20.0647H16.3027C17.4748 20.0647 17.4031 21.0856 17.4031 21.0856L17.3895 27.2629C17.3895 27.2629 23.7874 27.2629 24.7923 27.2629C25.6244 27.2629 25.5869 26.4285 25.5869 26.4285V15.0015L15.1534 5.7218L4.07877 15.0026V26.6206Z" fill="#EFEFEF"/>
<path d="M0 14.1387C0 14.1387 0.938992 15.8711 2.99091 14.1387L15.2467 3.76997L26.7363 14.0739C29.1099 15.7859 30 14.0739 30 14.0739L15.2467 0.709717L0 14.1387Z" fill="#EFEFEF"/>
<path d="M26.4566 3.74609H23.5021L23.5146 7.33041L26.4566 9.82794V3.74609Z" fill="#EFEFEF"/>
</svg>
