<svg width="30" height="30" viewBox="0 0 30 30" fill="none" xmlns="http://www.w3.org/2000/svg">
<path d="M0 3.12469V9.375H6.25031V3.12469H0ZM5.31281 8.4375H0.9375V4.06219H5.31281V8.4375Z" fill="white"/>
<path d="M27.4996 4.67157H8.74963V5.60907H27.4996V4.67157Z" fill="white"/>
<path d="M29.9999 7.03125H8.74963V7.96875H29.9999V7.03125Z" fill="white"/>
<path d="M0 11.8753V18.1256H6.25031V11.8753H0ZM5.31281 17.1872H0.9375V12.8119H5.31281V17.1872Z" fill="white"/>
<path d="M27.4996 13.4213H8.74963V14.3588H27.4996V13.4213Z" fill="white"/>
<path d="M29.9999 15.7809H8.74963V16.7184H29.9999V15.7809Z" fill="white"/>
<path d="M0 20.625V26.8753H6.25031V20.625H0ZM5.31281 25.9378H0.9375V21.5625H5.31281V25.9378Z" fill="white"/>
<path d="M27.4996 22.1719H8.74963V23.1094H27.4996V22.1719Z" fill="white"/>
<path d="M29.9999 24.5344H8.74963V25.4719H29.9999V24.5344Z" fill="white"/>
<path d="M3.12469 7.49999C3.81487 7.49999 4.37437 6.94048 4.37437 6.2503C4.37437 5.56011 3.81487 5.00061 3.12469 5.00061C2.4345 5.00061 1.875 5.56011 1.875 6.2503C1.875 6.94048 2.4345 7.49999 3.12469 7.49999Z" fill="white"/>
<path d="M3.12469 16.2497C3.81487 16.2497 4.37437 15.6902 4.37437 15C4.37437 14.3098 3.81487 13.7503 3.12469 13.7503C2.4345 13.7503 1.875 14.3098 1.875 15C1.875 15.6902 2.4345 16.2497 3.12469 16.2497Z" fill="white"/>
<path d="M3.12469 24.9994C3.81487 24.9994 4.37437 24.4399 4.37437 23.7497C4.37437 23.0595 3.81487 22.5 3.12469 22.5C2.4345 22.5 1.875 23.0595 1.875 23.7497C1.875 24.4399 2.4345 24.9994 3.12469 24.9994Z" fill="white"/>
</svg>
