<svg width="20" height="16" viewBox="0 0 20 16" fill="none" xmlns="http://www.w3.org/2000/svg">
<g clip-path="url(#clip0_934_269)">
<path fill-rule="evenodd" clip-rule="evenodd" d="M11.7415 16H12.7881H18.6214C18.7386 16 18.833 15.9023 18.833 15.781V10.1758C19.0706 10.2702 19.292 10.2719 19.4759 10.2079C19.6207 10.1573 19.7412 10.068 19.8307 9.95009C19.9202 9.83384 19.9772 9.69232 19.9935 9.53564C20.0195 9.29472 19.9495 9.02011 19.751 8.76235C19.7412 8.74887 19.7298 8.73707 19.7168 8.72697L19.108 8.26535V5.58324H17.4202V6.99L13.5433 4.05686C13.4684 3.9861 13.3528 3.97936 13.2698 4.04507L10.9489 5.79551L7.2949 3.04096C7.20538 2.96852 7.08005 2.97694 6.99867 3.05444L0.307592 8.11709C0.292944 8.12888 0.28155 8.14068 0.270157 8.15584C0.0536857 8.43382 -0.0228117 8.73202 0.0064852 8.99316C0.0243888 9.16163 0.0862378 9.31494 0.183894 9.4413C0.28155 9.56765 0.411759 9.66537 0.568009 9.71928C0.768204 9.78835 1.00746 9.78835 1.26462 9.68559V15.7608C1.26462 15.8922 1.36716 15.9983 1.49412 15.9983H11.7415V16ZM13.0192 10.6947H13.903V15.4474H16.8245H18.3008V9.94672C18.3008 9.9265 18.304 9.90797 18.3073 9.88944L13.3626 6.22007L12.4398 6.91924L13.999 8.09519C14.0088 8.10361 14.0169 8.11204 14.0267 8.12046C14.318 8.44393 14.3896 8.80447 14.3196 9.10772C14.2855 9.25766 14.2155 9.39244 14.1194 9.50363C14.0234 9.61483 13.903 9.70075 13.763 9.75297C13.5433 9.83553 13.2812 9.83216 13.0176 9.70243V10.6947H13.0192ZM10.9603 0.869327C11.2728 0.869327 11.5543 1.00074 11.7594 1.21133C11.9645 1.42361 12.0898 1.71507 12.0898 2.03854C12.0898 2.36201 11.9629 2.65347 11.7594 2.86575C11.5543 3.07802 11.2728 3.20775 10.9603 3.20775C10.6478 3.20775 10.3662 3.07634 10.1611 2.86575C9.95603 2.65347 9.83071 2.36201 9.83071 2.03854C9.83071 1.71507 9.95766 1.42361 10.1611 1.21133C10.3662 1.00074 10.6494 0.869327 10.9603 0.869327ZM9.95278 0.438033C9.9186 0.375698 9.93813 0.296515 9.99835 0.25945C10.0586 0.224071 10.1351 0.244288 10.1709 0.306623L10.3336 0.596399C10.3678 0.658734 10.3483 0.739602 10.2881 0.774982C10.2278 0.810361 10.1497 0.790144 10.1155 0.727809L9.95278 0.438033ZM10.861 0.13141C10.861 0.058966 10.9179 0 10.9879 0C11.0579 0 11.1149 0.058966 11.1149 0.13141V0.466674C11.1149 0.539118 11.0579 0.598084 10.9879 0.598084C10.9179 0.598084 10.861 0.539118 10.861 0.466674V0.13141ZM11.7952 0.335264C11.8294 0.272928 11.9075 0.251027 11.9677 0.286406C12.028 0.321786 12.0491 0.402653 12.0149 0.464989L11.8522 0.754765C11.818 0.8171 11.7399 0.839002 11.6797 0.803622C11.6194 0.768243 11.5983 0.687375 11.6325 0.62504L11.7952 0.335264ZM12.5065 0.995683C12.5667 0.960303 12.6448 0.98052 12.679 1.04286C12.7132 1.10519 12.6937 1.18606 12.6334 1.22144L12.3519 1.38991C12.2916 1.42698 12.2151 1.40508 12.1793 1.34274C12.1435 1.2804 12.1647 1.19954 12.2249 1.16416L12.5065 0.995683ZM12.8043 1.93577C12.8743 1.93577 12.9313 1.99474 12.9313 2.06718C12.9313 2.13962 12.8743 2.19859 12.8043 2.19859H12.4804C12.4105 2.19859 12.3535 2.13962 12.3535 2.06718C12.3535 1.99474 12.4105 1.93577 12.4804 1.93577H12.8043ZM12.6074 2.90281C12.6676 2.93819 12.6888 3.01906 12.6546 3.08139C12.6204 3.14373 12.5423 3.16563 12.4821 3.13025L12.2005 2.96178C12.1403 2.9264 12.1191 2.84553 12.1533 2.78319C12.1875 2.72086 12.2656 2.69896 12.3258 2.73434L12.6074 2.90281ZM11.9694 3.63904C12.0052 3.70138 11.984 3.78225 11.9238 3.81763C11.8636 3.85301 11.7855 3.83279 11.7513 3.77045L11.5885 3.48068C11.5543 3.41834 11.5739 3.33748 11.6341 3.3021C11.6943 3.26672 11.7708 3.28693 11.8066 3.34927L11.9694 3.63904ZM11.0612 3.94735C11.0612 4.0198 11.0042 4.07876 10.9342 4.07876C10.8642 4.07876 10.8073 4.0198 10.8073 3.94735V3.61209C10.8073 3.53964 10.8642 3.48068 10.9342 3.48068C11.0042 3.48068 11.0612 3.53964 11.0612 3.61209V3.94735ZM10.1269 3.74181C10.0927 3.80415 10.0146 3.82605 9.9544 3.79067C9.89418 3.75529 9.87302 3.67442 9.9072 3.61209L10.07 3.32231C10.1041 3.25998 10.1823 3.23808 10.2425 3.27345C10.3027 3.30883 10.3239 3.3897 10.2897 3.45204L10.1269 3.74181ZM9.41567 3.08308C9.35544 3.12014 9.27895 3.09824 9.24314 3.03591C9.20896 2.97357 9.22849 2.8927 9.28871 2.85732L9.56866 2.68885C9.62888 2.65347 9.70701 2.67369 9.74119 2.73602C9.77537 2.79836 9.75584 2.87754 9.69561 2.9146L9.41567 3.08308ZM9.11782 2.14299C9.04783 2.14299 8.99086 2.08403 8.99086 2.01158C8.99086 1.93914 9.04783 1.88017 9.11782 1.88017H9.44171C9.51169 1.88017 9.56866 1.93914 9.56866 2.01158C9.56866 2.08403 9.51169 2.14299 9.44171 2.14299H9.11782ZM9.31475 1.17427C9.25453 1.13889 9.23337 1.05802 9.26755 0.995683C9.30173 0.933347 9.37986 0.911446 9.44008 0.946825L9.72166 1.1153C9.78188 1.15068 9.80304 1.23155 9.76886 1.29388C9.73468 1.35622 9.65655 1.37812 9.59633 1.34274L9.31475 1.17427ZM5.35154 10.7672H8.99249V15.4019H10.9017H12.4398V9.42108C12.4398 9.40592 12.4414 9.39076 12.4446 9.37559L7.19399 5.39792L1.83429 9.37728C1.83917 9.39749 1.84242 9.41771 1.84242 9.43793V15.4002H3.44236H5.35154V10.7672ZM6.14418 7.08603H7.08168V8.07834H6.14418V7.08603ZM8.35772 8.40687H7.42022V9.39918H8.35772V8.40687ZM6.14418 8.40687H7.08168V9.39918H6.14418V8.40687ZM8.35772 7.08603H7.42022V8.07834H8.35772V7.08603Z" fill="#858585"/>
</g>
<defs>
<clipPath id="clip0_934_269">
<rect width="20" height="16" fill="white"/>
</clipPath>
</defs>
</svg>
