<svg width="30" height="30" viewBox="0 0 30 30" fill="none" xmlns="http://www.w3.org/2000/svg">
<g clip-path="url(#clip0_19_51)">
<path d="M29.7556 9.94436L28.9306 8.70389C28.5024 8.06028 27.6466 7.86217 26.9793 8.25199L16.5444 14.781L11.1324 13.2954L15.7214 13.2939C16.11 13.2938 16.4825 13.1386 16.7565 12.8626C17.0303 12.5869 17.1791 12.2132 17.1765 11.8244L17.1713 10.5507C17.1656 9.74886 16.5143 9.10173 15.7122 9.10145L7.54514 9.09934C7.545 9.09934 7.545 9.09934 7.54486 9.09934C7.15448 9.09934 6.78051 9.2557 6.5063 9.53343L0.420939 15.6977C-0.120659 16.2461 -0.142272 17.1212 0.371447 17.6957L3.73741 21.4606C4.02049 21.7774 4.41903 21.9474 4.82574 21.9474C5.02252 21.9474 5.22105 21.9077 5.4093 21.8254L9.69111 19.956L17.3787 19.9546C17.676 19.9546 17.966 19.8638 18.2102 19.6945L29.3724 11.9519C30.0254 11.4988 30.1959 10.6063 29.7556 9.94436Z" fill="white"/>
</g>
<defs>
<clipPath id="clip0_19_51">
<rect width="30" height="30" fill="white"/>
</clipPath>
</defs>
</svg>
