<svg width="28" height="28" viewBox="0 0 28 28" fill="none" xmlns="http://www.w3.org/2000/svg">
<path d="M26.281 24.7466L19.9523 18.4179C21.4973 16.5331 22.4211 14.128 22.4211 11.4999C22.4211 5.47385 17.5313 0.583984 11.5052 0.583984C5.47385 0.583984 0.583984 5.47385 0.583984 11.5052C0.583984 17.5366 5.47385 22.4264 11.5052 22.4264C14.128 22.4264 16.5384 21.5026 18.4232 19.9576L24.7466 26.281C25.1713 26.7057 25.8562 26.7057 26.281 26.281C26.7057 25.8562 26.7057 25.1713 26.281 24.7466ZM2.75018 11.5052C2.75018 6.67375 6.66844 2.75549 11.4999 2.75549C16.3314 2.75549 20.2496 6.67375 20.2496 11.5052C20.2496 16.3367 16.3314 20.2549 11.4999 20.2549C6.66844 20.2549 2.75018 16.3367 2.75018 11.5052Z" fill="#858585"/>
</svg>
