<svg width="20" height="16" viewBox="0 0 20 16" fill="none" xmlns="http://www.w3.org/2000/svg">
<path d="M18.7156 0.0116295C18.7265 0.0166295 18.7406 0.0149628 18.7452 0.00996279C18.7515 0.00496279 18.7421 -3.72101e-05 18.7249 0.00162946C18.7077 0.00162946 18.7031 0.00662946 18.7156 0.0116295Z" fill="#858585"/>
<path d="M12.0923 2.02327C12.0892 2.02661 12.0376 2.03327 11.9767 2.03827C11.7501 2.05827 11.4204 2.13994 11.2548 2.21827C11.2173 2.23661 11.1845 2.24994 11.1782 2.24994C11.1735 2.24994 11.1235 2.27161 11.0673 2.29994C11.0126 2.32661 10.961 2.34994 10.9532 2.34994C10.9454 2.34994 10.9376 2.35661 10.9345 2.36327C10.9329 2.37161 10.8767 2.40994 10.8126 2.44994C10.5282 2.62494 10.2329 2.90161 10.047 3.16494C10.0251 3.19661 9.99072 3.24327 9.96885 3.26994L9.92979 3.31827L9.83291 3.18827C9.65947 2.95494 9.32666 2.63661 9.12354 2.50827C9.09385 2.48994 9.03135 2.45161 8.98447 2.42161C8.9376 2.39161 8.8876 2.36327 8.8751 2.35661C8.8626 2.35161 8.79854 2.32161 8.73447 2.28994C8.54854 2.20161 8.3876 2.14827 8.12666 2.09161C8.0001 2.06327 7.64072 2.04161 7.50791 2.05494C6.74854 2.12494 6.03135 2.54327 5.57354 3.18161C5.50947 3.26994 5.43916 3.37661 5.41572 3.41827C5.39229 3.45827 5.36729 3.50327 5.35947 3.51661C5.31572 3.59327 5.19541 3.89161 5.15479 4.02827C5.10479 4.18994 5.05635 4.41994 5.03447 4.58327C5.02041 4.69994 5.02041 5.27161 5.03447 5.42494C5.04854 5.57994 5.10166 5.90161 5.13135 6.01994C5.14541 6.07327 5.16729 6.15994 5.17979 6.21161C5.20791 6.31994 5.2626 6.49494 5.3126 6.63327C5.33135 6.68327 5.35635 6.75494 5.36885 6.78994C5.40791 6.90327 5.6251 7.36827 5.70791 7.51661C5.86572 7.79827 6.05322 8.10327 6.0876 8.13494C6.1001 8.14494 6.10947 8.16161 6.10947 8.16994C6.10947 8.17827 6.12354 8.20661 6.14229 8.22994C6.15947 8.25494 6.20479 8.31661 6.23916 8.36827C6.35947 8.53994 6.61729 8.87161 6.70635 8.96827C6.75166 9.01827 6.79854 9.03661 6.85166 9.02661C6.91572 9.01327 6.94385 8.97994 6.98447 8.86494C7.09072 8.55661 7.35947 8.31994 7.66104 8.26661C7.81729 8.23827 8.07354 8.25494 8.15635 8.29994C8.18916 8.31827 8.2251 8.33327 8.23291 8.33327C8.26885 8.33327 8.43604 8.46161 8.52666 8.55827C8.64229 8.68327 8.7501 8.90161 8.8126 9.14161C8.82041 9.16827 8.87979 9.35327 8.94541 9.54994C9.01104 9.74661 9.07041 9.92994 9.07822 9.95827C9.08604 9.98494 9.12041 10.0949 9.15635 10.1999C9.19072 10.3049 9.24854 10.4816 9.28291 10.5916C9.31572 10.7016 9.3501 10.8066 9.35791 10.8249C9.36572 10.8433 9.37666 10.8733 9.37979 10.8916C9.39854 10.9716 9.57822 11.5049 9.59385 11.5233C9.60166 11.5366 9.67822 11.5899 9.76104 11.6433C9.95635 11.7683 9.97822 11.7683 10.1767 11.6416C10.2595 11.5899 10.3345 11.5383 10.3423 11.5266C10.3501 11.5166 10.5063 11.0316 10.6892 10.4499C10.8704 9.86827 11.061 9.26327 11.111 9.10494C11.2142 8.77661 11.2579 8.67994 11.3657 8.55327C11.6063 8.27327 11.9907 8.15827 12.3438 8.26161C12.4688 8.29994 12.5563 8.35161 12.6782 8.46161C12.8032 8.57327 12.8767 8.67827 12.9235 8.81661C12.9673 8.94661 13.0267 9.00827 13.097 8.99327C13.1626 8.97994 13.1704 8.97161 13.3126 8.79994C13.5876 8.46827 14.022 7.81327 14.1892 7.47827C14.197 7.46327 14.2095 7.43661 14.2188 7.41994C14.2751 7.31494 14.3735 7.10661 14.4173 6.99994C14.4454 6.93161 14.4798 6.85161 14.4923 6.82494C14.5048 6.79661 14.5392 6.69994 14.5704 6.60827C14.6017 6.51661 14.6329 6.42494 14.6407 6.40327C14.6501 6.38161 14.6563 6.34661 14.6563 6.32494C14.6563 6.30161 14.6626 6.28327 14.6688 6.28327C14.6798 6.28327 14.7095 6.17827 14.7282 6.07161C14.7298 6.06161 14.7392 6.02661 14.7485 5.99661C14.772 5.91827 14.8235 5.58827 14.8454 5.38494C14.8657 5.18827 14.8563 4.58161 14.8298 4.47494C14.822 4.43827 14.8095 4.38161 14.8048 4.34994C14.7501 4.01327 14.5657 3.55161 14.3704 3.25661C13.9657 2.64494 13.311 2.19827 12.6329 2.06494C12.461 2.03161 12.111 2.00494 12.0923 2.02327Z" fill="#858585"/>
<path d="M16.1471 5.43333C15.9283 5.46667 15.7486 5.64167 15.7111 5.855C15.7049 5.88833 15.6986 5.91667 15.6971 5.91667C15.6971 5.91833 15.6502 5.92167 15.5939 5.92667C15.4643 5.93667 15.4018 5.95833 15.3096 6.02C15.1596 6.12 15.1127 6.225 15.0564 6.58333C15.0518 6.615 15.0439 6.65667 15.0408 6.675C15.0377 6.69333 15.0236 6.795 15.0096 6.9C14.9939 7.005 14.9768 7.10333 14.9705 7.11667C14.9627 7.13 14.9283 7.14667 14.8908 7.15333C14.6768 7.19167 14.5096 7.38833 14.4674 7.65C14.4596 7.7 14.4455 7.79833 14.4377 7.86667C14.4299 7.935 14.4189 8.01 14.4143 8.03333C14.4111 8.05667 14.4033 8.09333 14.3986 8.11667C14.3939 8.14 14.3877 8.19167 14.383 8.23333C14.3799 8.275 14.3705 8.345 14.3611 8.39167C14.3533 8.43667 14.3424 8.50833 14.3361 8.55C14.3314 8.59167 14.3189 8.67 14.3111 8.725C14.3033 8.78 14.2893 8.87333 14.2799 8.93333C14.2721 8.99333 14.2611 9.06 14.258 9.08333C14.2533 9.10667 14.2361 9.22667 14.2174 9.35C14.2002 9.47333 14.1846 9.59 14.1799 9.60833C14.1768 9.62667 14.1736 9.65333 14.1736 9.67C14.1721 9.685 14.0861 9.785 13.9814 9.895C13.8768 10.0033 13.6846 10.2017 13.5549 10.3367C13.0705 10.8417 12.9596 10.955 12.8908 11.015C12.8518 11.0483 12.8127 11.0833 12.8018 11.095C12.7908 11.105 12.7314 11.135 12.6689 11.1617C12.5689 11.2017 12.5346 11.2083 12.3955 11.2083C12.2955 11.2083 12.2283 11.2 12.2174 11.1883C12.2033 11.1733 12.2064 11.1417 12.2314 11.055C12.2502 10.9933 12.2721 10.9117 12.2799 10.875C12.2893 10.8383 12.3064 10.77 12.3189 10.725C12.3314 10.6783 12.3627 10.5583 12.3893 10.4583C12.4158 10.3567 12.458 10.1967 12.4846 10.1C12.5096 10.0033 12.5408 9.88333 12.5533 9.83333C12.5658 9.78333 12.6018 9.64833 12.633 9.53333C12.7268 9.19333 12.7189 8.99667 12.6049 8.80667C12.5393 8.69667 12.4549 8.63167 12.2893 8.56333C12.2158 8.53333 12.1643 8.52667 12.0549 8.52667C11.9252 8.52667 11.9049 8.53167 11.7971 8.58667C11.6455 8.665 11.533 8.78333 11.4627 8.94C11.433 9.005 11.4049 9.085 11.3986 9.11667C11.3924 9.14833 11.3768 9.19667 11.3658 9.225C11.3549 9.25167 11.3314 9.32333 11.3127 9.38333C11.2627 9.55167 11.1471 9.92667 11.0971 10.0833C11.0299 10.29 10.9752 10.47 10.7564 11.175C10.6471 11.5233 10.5533 11.8233 10.5471 11.8417C10.5393 11.86 10.4986 11.9917 10.4549 12.1333C10.4111 12.275 10.3549 12.46 10.3299 12.5433C10.2861 12.685 10.2377 12.8967 10.2096 13.0583C10.2033 13.095 10.1971 13.1367 10.1939 13.15C10.1346 13.4783 10.1346 14.0817 10.1939 14.6C10.2252 14.8767 10.2799 15.2817 10.3127 15.4917C10.3518 15.735 10.3518 15.7367 10.3658 15.85C10.3721 15.9 10.3814 15.955 10.3846 15.97C10.3924 15.9983 10.4689 16 11.7033 16C12.883 16 13.0127 15.9967 13.0221 15.9733C13.0268 15.9583 13.0314 15.7133 13.0314 15.4283C13.0314 14.7667 13.0502 14.62 13.1705 14.3583L13.2486 14.1867L13.7143 13.6967C14.2939 13.0883 14.7268 12.6367 15.0705 12.2817C15.2158 12.1317 15.4627 11.8767 15.6174 11.715C15.7721 11.5533 16.0174 11.2983 16.1627 11.1483C16.4533 10.8467 16.5549 10.7167 16.633 10.5417C16.7002 10.3917 16.7752 10.145 16.8049 9.975C16.8189 9.90167 16.8361 9.815 16.8439 9.78333C16.8564 9.73167 16.8955 9.47167 16.9158 9.3C16.9189 9.26833 16.9377 9.14833 16.9549 9.03333C16.9736 8.91833 16.9908 8.795 16.9924 8.75833C16.9955 8.72167 17.0127 8.57833 17.0299 8.44167C17.0752 8.10333 17.0752 8.095 17.0939 7.92833C17.1018 7.84833 17.1174 7.71833 17.1268 7.63667C17.1361 7.55667 17.1455 7.46833 17.1486 7.44167C17.1564 7.37333 17.2143 6.9 17.2268 6.8C17.2346 6.745 17.2424 6.66833 17.2814 6.30833C17.2893 6.225 17.3002 6.13667 17.3033 6.11C17.3111 6.03833 17.2768 5.86833 17.2377 5.78833C17.1986 5.70833 17.0768 5.60333 16.9643 5.55167C16.8768 5.51167 16.7424 5.505 16.633 5.53667C16.5752 5.55333 16.5549 5.55333 16.5283 5.535C16.4393 5.475 16.3893 5.45333 16.3143 5.435C16.2705 5.425 16.2314 5.41833 16.2299 5.41833C16.2283 5.42 16.1908 5.42667 16.1471 5.43333Z" fill="#858585"/>
<path d="M3.49852 5.52333C3.46727 5.53667 3.41258 5.56667 3.37821 5.59167C3.32039 5.63167 3.30789 5.635 3.26414 5.61833C3.17821 5.58667 2.99227 5.595 2.90164 5.63667C2.73758 5.70833 2.60164 5.90333 2.58289 6.09C2.57821 6.13667 2.58289 6.23167 2.59227 6.3C2.60321 6.36833 2.61414 6.46167 2.61883 6.50833C2.62196 6.55333 2.63602 6.66667 2.64852 6.75833C2.66727 6.90667 2.68914 7.07833 2.69539 7.125C2.69539 7.13333 2.70164 7.17833 2.70789 7.225C2.71414 7.27 2.73133 7.39 2.74383 7.49167C2.75633 7.59167 2.77039 7.69667 2.77508 7.725C2.77821 7.75167 2.78914 7.83833 2.79696 7.91667C2.81102 8.04667 2.83602 8.22833 2.85321 8.33333C2.85789 8.35667 2.86727 8.43833 2.87664 8.51667C2.88446 8.595 2.89852 8.705 2.90789 8.76333C2.91571 8.82 2.92508 8.88667 2.92821 8.91333C2.93446 8.95833 2.98914 9.325 3.00789 9.43333C3.01258 9.465 3.02352 9.53333 3.03133 9.58333C3.12039 10.1517 3.20477 10.4517 3.35164 10.7267C3.41883 10.8517 3.53446 10.9817 4.01414 11.4667C4.17352 11.6267 4.32508 11.78 4.35164 11.8083C4.45477 11.915 5.01102 12.48 5.05633 12.5267C5.18289 12.6517 5.62039 13.0933 5.78133 13.2583C5.87977 13.3583 6.06258 13.5467 6.18758 13.675C6.64852 14.1467 6.72821 14.2417 6.79696 14.3883C6.85321 14.5083 6.87821 14.5883 6.91571 14.7617C6.92196 14.7867 6.93133 15.075 6.93758 15.4C6.94383 15.725 6.95008 15.9933 6.95164 15.995C6.95164 15.9983 7.54696 16 8.27352 16H9.59227L9.60008 15.945C9.60477 15.9167 9.61571 15.8383 9.62664 15.775C9.63602 15.71 9.64696 15.635 9.64852 15.6083C9.65164 15.58 9.66727 15.4617 9.68602 15.3417C9.70321 15.2217 9.72196 15.0917 9.72508 15.05C9.72977 15.0083 9.74227 14.9117 9.75164 14.8333C9.78602 14.54 9.80008 14.3133 9.80477 13.9333C9.80946 13.5133 9.79852 13.3767 9.72508 12.95C9.71414 12.8933 9.60946 12.5033 9.59071 12.45C9.57352 12.4033 9.29696 11.5517 9.24227 11.375C9.22196 11.31 9.14071 11.06 9.06258 10.8167C8.98446 10.5733 8.90946 10.345 8.89852 10.3083C8.86258 10.195 8.66258 9.58 8.62664 9.475C8.60789 9.42 8.56883 9.3 8.54071 9.20833C8.51102 9.11667 8.46883 9 8.44696 8.94833C8.36414 8.765 8.14539 8.585 7.96883 8.55833C7.92977 8.55333 7.88602 8.54667 7.86883 8.54333C7.81414 8.535 7.62352 8.58333 7.53758 8.62667C7.36414 8.71333 7.23446 8.915 7.21414 9.12667C7.20477 9.22833 7.23446 9.40333 7.29071 9.58333C7.30477 9.625 7.32508 9.695 7.33602 9.74167C7.35946 9.83667 7.50008 10.3583 7.58602 10.6667C7.61727 10.7817 7.65321 10.9117 7.66414 10.9583C7.67664 11.0033 7.69696 11.0783 7.70946 11.125C7.72196 11.17 7.72977 11.2117 7.72508 11.2167C7.72039 11.2217 7.64227 11.2283 7.55164 11.23C7.41102 11.235 7.37352 11.2317 7.29071 11.1983C7.11102 11.1283 7.11883 11.1367 6.50789 10.515C5.74696 9.74167 5.75008 9.74667 5.74383 9.69167C5.74071 9.66333 5.72352 9.55167 5.70477 9.44167C5.68758 9.33167 5.66883 9.21167 5.66414 9.175C5.65789 9.13833 5.64539 9.055 5.63289 8.99167C5.60946 8.85667 5.59227 8.75833 5.58602 8.7C5.58289 8.67667 5.57196 8.61 5.56258 8.55C5.55321 8.49 5.53914 8.39333 5.52977 8.33333C5.51258 8.21167 5.51102 8.20167 5.46727 7.93667C5.45008 7.83167 5.43446 7.72667 5.43133 7.70333C5.40477 7.455 5.22352 7.25167 4.99071 7.20667C4.92664 7.19333 4.91102 7.175 4.90164 7.08667C4.89539 7.04333 4.88758 6.97833 4.88289 6.94167C4.87821 6.905 4.86414 6.81833 4.85164 6.75C4.84071 6.68167 4.82508 6.59167 4.81883 6.55C4.81258 6.50833 4.80633 6.47167 4.80477 6.46667C4.80321 6.46167 4.79696 6.43167 4.79071 6.4C4.74071 6.17167 4.54383 6.00833 4.29539 5.98833L4.19071 5.97833L4.17196 5.91C4.10008 5.655 3.92821 5.51333 3.67977 5.505C3.60164 5.50167 3.53289 5.51 3.49852 5.52333Z" fill="#858585"/>
</svg>
