<svg width="15" height="15" viewBox="0 0 15 15" fill="none" xmlns="http://www.w3.org/2000/svg">
<g clip-path="url(#clip0_701_2)">
<path d="M14.3303 0.973483L14.0264 0.669595C13.1334 -0.223317 11.6805 -0.223405 10.7875 0.669595L10.3233 1.13381L1.78109 9.67601C1.77824 9.67885 1.77578 9.68193 1.77309 9.68489C1.74426 9.71477 1.72126 9.75052 1.70708 9.79095L0.0165326 14.6099C-0.0207649 14.7162 0.0061901 14.8344 0.0858244 14.9141C0.141727 14.9699 0.216615 14.9999 0.293055 14.9999C0.325519 14.9999 0.358304 14.9945 0.390005 14.9834L1.35948 14.6432C1.51215 14.5896 1.59252 14.4224 1.53893 14.2697C1.48537 14.117 1.31819 14.0367 1.16546 14.0903L0.771242 14.2286L2.10575 10.4245L4.57529 12.8941L2.40949 13.6539C2.25681 13.7074 2.17645 13.8746 2.23003 14.0273C2.28362 14.18 2.4508 14.2605 2.60351 14.2068L5.20891 13.2928C5.24922 13.2786 5.28488 13.2557 5.31471 13.227C5.31772 13.2242 5.32092 13.2217 5.32382 13.2187L13.8658 4.67669C13.8659 4.67663 13.8659 4.6766 13.866 4.67654L14.3302 4.21233C15.2232 3.31939 15.2232 1.86643 14.3303 0.973483ZM5.11668 12.5972L2.40263 9.88318L10.5305 1.75535L13.2445 4.4694L5.11668 12.5972ZM13.9159 3.79798L13.6589 4.05502L12.3018 2.69802L10.9448 1.34101L11.2019 1.08394C11.8663 0.419442 12.9476 0.419442 13.612 1.08394L13.9159 1.38783C14.5804 2.0523 14.5804 3.13351 13.9159 3.79798Z" fill="#1338B9"/>
<path d="M8.83469 4.68663L3.90545 9.6159C3.79104 9.73031 3.79104 9.91583 3.90545 10.0303C3.96267 10.0875 4.03765 10.1161 4.11262 10.1161C4.1876 10.1161 4.2626 10.0875 4.31979 10.0303L9.24904 5.101C9.36348 4.98659 9.36348 4.80107 9.24907 4.68663C9.13463 4.57222 8.94916 4.57225 8.83469 4.68663Z" fill="#1338B9"/>
<path d="M10.2911 3.23028L9.81494 3.70639C9.70052 3.8208 9.70052 4.00632 9.81494 4.12073C9.87219 4.17795 9.94713 4.20655 10.0221 4.20655C10.0971 4.20655 10.1721 4.17792 10.2293 4.12073L10.7054 3.64462C10.8199 3.53021 10.8199 3.34469 10.7054 3.23028C10.5911 3.11587 10.4056 3.11587 10.2911 3.23028Z" fill="#1338B9"/>
</g>
<defs>
<clipPath id="clip0_701_2">
<rect width="15" height="15" fill="white"/>
</clipPath>
</defs>
</svg>
